<svg width="19" height="18" viewBox="0 0 19 18" fill="none" xmlns="http://www.w3.org/2000/svg">
<path d="M12.4 6.6C12.6 7 12.6001 7.5 12.6001 8C12.6001 8.8 12.4001 9.5 12.1001 10.1L13.5001 11.6C13.6001 11.4 13.7 11.2 13.9 11.1C14.8 10.6 15.5001 9.9 16.0001 9.2C15.3001 8.1 14 7.1 12.4 6.6ZM5.40005 7.5C5.60005 8.2 6.10005 8.8 6.70005 9L9.40005 12C9.20005 12 9.10005 12 8.90005 12C6.90005 12 5.20005 10.2 5.20005 8C5.30005 7.8 5.30005 7.6 5.40005 7.5ZM6.80006 4.2C7.50005 4.1 8.20005 4 9.00005 4C12.9001 4 16.4001 5.8 17.9001 8.7C18.1001 9 18.1001 9.4 17.9001 9.7C17.2001 11 16.2001 12.1 14.8001 12.9L17.7 16.1C18 16.5 18 17.1 17.7 17.4C17.4 17.8 16.8001 17.8 16.5001 17.5C16.5001 17.5 16.5001 17.5 16.4001 17.4L2.40005 1.8C2.10005 1.4 2.10005 0.800001 2.40005 0.500001C2.70005 0.100001 3.30006 0.100001 3.60006 0.400001C3.60006 0.400001 3.60005 0.400001 3.70005 0.500001L6.80006 4.2ZM3.50005 5.3L4.90005 6.8C3.70005 7.4 2.60005 8.2 2.00005 9.1C2.50005 9.8 3.20006 10.5 4.10006 11C4.50006 11.3 4.70005 11.9 4.50005 12.4C4.30005 12.9 3.70006 13.1 3.30006 12.8C1.90006 12 0.800049 10.9 0.200049 9.6C4.88311e-05 9.3 4.88311e-05 8.9 0.200049 8.6C0.800049 7.3 2.00005 6.2 3.50005 5.3Z" fill="#FF8822"/>
</svg>
