<svg width="230" height="200" viewBox="0 0 230 200" fill="none" xmlns="http://www.w3.org/2000/svg">
<g clip-path="url(#clip0)">
    <defs>
        <linearGradient id="paint0_linear" x1="32.7593" y1="198.714" x2="32.7593" y2="43.6046" gradientUnits="userSpaceOnUse">
            <stop stop-color="#808080" stop-opacity="0.25"/>
            <stop offset="0.54" stop-color="#808080" stop-opacity="0.12"/>
            <stop offset="1" stop-color="#808080" stop-opacity="0.1"/>
        </linearGradient>
        <clipPath id="clip0">
            <rect width="230" height="200" fill="white"/>
        </clipPath>
    </defs>
<path opacity="0.1" d="M92.003 185.315C135.625 185.315 170.988 184.053 170.988 182.497C170.988 180.94 135.625 179.678 92.003 179.678C48.3807 179.678 13.0179 180.94 13.0179 182.497C13.0179 184.053 48.3807 185.315 92.003 185.315Z" fill="#FF8822"/>
<path opacity="0.1" d="M70.8403 7.91456C78.6242 0.971298 90.8425 -0.444199 101.964 0.104916C136.898 1.84256 168.433 18.726 195.71 37.8255C205.583 44.7395 215.305 52.1903 221.716 61.7108C234.763 81.0933 230.892 107.941 212.755 123.917C206.582 129.347 199.103 133.513 191.414 137.203C177.763 143.768 163.016 149.037 147.514 150.538C136.456 151.607 125.267 150.736 114.275 149.245C83.5511 145.069 53.4197 135.849 28.1543 120.076C17.0744 113.157 6.63085 104.556 2.06971 93.3642C-2.49143 82.172 0.421749 67.9902 11.7332 61.3667C16.4138 58.626 22.0086 57.3886 27.4863 56.227C35.5481 54.5186 43.7416 52.8322 51.016 49.3545C58.5318 45.7645 67.4298 38.8188 65.9427 30.87C64.346 22.3404 63.0734 14.8505 70.8403 7.91456Z" fill="#FF8822"/>
<path opacity="0.1" d="M30.8968 200C42.5631 200 52.0204 198.092 52.0204 195.739C52.0204 193.385 42.5631 191.478 30.8968 191.478C19.2306 191.478 9.77319 193.385 9.77319 195.739C9.77319 198.092 19.2306 200 30.8968 200Z" fill="#FF8822"/>
<path opacity="0.1" d="M208.874 186.482C220.54 186.482 229.998 185.644 229.998 184.61C229.998 183.576 220.54 182.738 208.874 182.738C197.208 182.738 187.75 183.576 187.75 184.61C187.75 185.644 197.208 186.482 208.874 186.482Z" fill="#FF8822"/>
<path d="M125.184 39.097H62.5884V52.9421H125.184V39.097Z" fill="#464A5F"/>
<path opacity="0.1" d="M125.184 39.097H62.5884V39.4561H125.184V39.097Z" fill="black"/>
<path d="M128.509 8.43689H59.5363V39.0946H128.509V8.43689Z" fill="#65617D"/>
<path d="M33.9099 8.43689H60.6137V73.2618H29.1805V13.1788C29.1805 11.9231 29.6788 10.7188 30.5657 9.83094C31.4527 8.94303 32.6556 8.44421 33.9099 8.44421V8.43689Z" fill="#65617D"/>
<path opacity="0.1" d="M56.6157 12.5272H33.8953V69.889H56.6157V12.5272Z" fill="black"/>
<path d="M56.2574 12.1684H33.537V69.5302H56.2574V12.1684Z" fill="#D1D9EC"/>
<path opacity="0.1" d="M56.2573 68.925C57.535 68.925 58.5708 67.8881 58.5708 66.609C58.5708 65.3298 57.535 64.2929 56.2573 64.2929C54.9796 64.2929 53.9438 65.3298 53.9438 66.609C53.9438 67.8881 54.9796 68.925 56.2573 68.925Z" fill="black"/>
<path d="M56.2573 68.5638C57.535 68.5638 58.5708 67.5269 58.5708 66.2478C58.5708 64.9686 57.535 63.9317 56.2573 63.9317C54.9796 63.9317 53.9438 64.9686 53.9438 66.2478C53.9438 67.5269 54.9796 68.5638 56.2573 68.5638Z" fill="#464A5F"/>
<path d="M126.803 8.43689H153.265C153.919 8.43721 154.566 8.56646 155.169 8.81727C155.773 9.06807 156.321 9.4355 156.783 9.89855C157.244 10.3616 157.61 10.9112 157.86 11.5159C158.109 12.1206 158.237 12.7686 158.236 13.4229V73.2618H126.803V8.43689Z" fill="#65617D"/>
<path opacity="0.1" d="M154.238 12.5272H131.517V69.889H154.238V12.5272Z" fill="black"/>
<path d="M153.879 12.1684H131.159V69.5302H153.879V12.1684Z" fill="#D1D9EC"/>
<path opacity="0.1" d="M153.882 68.925C155.16 68.925 156.195 67.8881 156.195 66.609C156.195 65.3298 155.16 64.2929 153.882 64.2929C152.604 64.2929 151.568 65.3298 151.568 66.609C151.568 67.8881 152.604 68.925 153.882 68.925Z" fill="black"/>
<path d="M153.882 68.5638C155.16 68.5638 156.195 67.5269 156.195 66.2478C156.195 64.9686 155.16 63.9317 153.882 63.9317C152.604 63.9317 151.568 64.9686 151.568 66.2478C151.568 67.5269 152.604 68.5638 153.882 68.5638Z" fill="#464A5F"/>
<path opacity="0.1" d="M89.6431 12.5272H65.1041V37.0934H89.6431V12.5272Z" fill="black"/>
<path d="M89.2847 12.1684H64.7457V36.7346H89.2847V12.1684Z" fill="#D1D9EC"/>
<path opacity="0.1" d="M89.2848 38.5797C90.1034 38.5797 90.767 37.9153 90.767 37.0958C90.767 36.2763 90.1034 35.612 89.2848 35.612C88.4662 35.612 87.8026 36.2763 87.8026 37.0958C87.8026 37.9153 88.4662 38.5797 89.2848 38.5797Z" fill="black"/>
<path d="M89.2848 38.2209C90.1034 38.2209 90.767 37.5566 90.767 36.7371C90.767 35.9176 90.1034 35.2532 89.2848 35.2532C88.4662 35.2532 87.8026 35.9176 87.8026 36.7371C87.8026 37.5566 88.4662 38.2209 89.2848 38.2209Z" fill="#464A5F"/>
<path opacity="0.1" d="M97.3247 37.0958H121.864V12.5296L97.3247 12.5296V37.0958Z" fill="black"/>
<path d="M97.683 36.737H122.222V12.1708L97.683 12.1708V36.737Z" fill="#D1D9EC"/>
<path opacity="0.1" d="M97.683 38.5797C98.5016 38.5797 99.1652 37.9153 99.1652 37.0958C99.1652 36.2763 98.5016 35.612 97.683 35.612C96.8644 35.612 96.2008 36.2763 96.2008 37.0958C96.2008 37.9153 96.8644 38.5797 97.683 38.5797Z" fill="black"/>
<path d="M97.683 38.2209C98.5016 38.2209 99.1652 37.5566 99.1652 36.7371C99.1652 35.9176 98.5016 35.2532 97.683 35.2532C96.8644 35.2532 96.2008 35.9176 96.2008 36.7371C96.2008 37.5566 96.8644 38.2209 97.683 38.2209Z" fill="#464A5F"/>
<path opacity="0.1" d="M94.0215 8.43689H93.0342V39.0946H94.0215V8.43689Z" fill="black"/>
<path opacity="0.1" d="M68.8778 50.7845H64.7457V52.0439H68.8778V50.7845Z" fill="black"/>
<path d="M68.8778 50.4233H64.7457V51.6827H68.8778V50.4233Z" fill="#53526B"/>
<path opacity="0.1" d="M116.744 49.2544H95.1014V52.0415H116.744V49.2544Z" fill="black"/>
<path d="M116.744 48.8956H95.1014V51.6827H116.744V48.8956Z" fill="#53526B"/>
<path opacity="0.1" d="M107.464 51.1873C107.761 51.1873 108.002 50.9458 108.002 50.6479C108.002 50.3501 107.761 50.1086 107.464 50.1086C107.166 50.1086 106.925 50.3501 106.925 50.6479C106.925 50.9458 107.166 51.1873 107.464 51.1873Z" fill="black"/>
<path d="M107.464 50.8285C107.761 50.8285 108.002 50.587 108.002 50.2892C108.002 49.9913 107.761 49.7498 107.464 49.7498C107.166 49.7498 106.925 49.9913 106.925 50.2892C106.925 50.587 107.166 50.8285 107.464 50.8285Z" fill="#B65256"/>
<path opacity="0.1" d="M110.547 51.1873C110.845 51.1873 111.086 50.9458 111.086 50.6479C111.086 50.3501 110.845 50.1086 110.547 50.1086C110.25 50.1086 110.009 50.3501 110.009 50.6479C110.009 50.9458 110.25 51.1873 110.547 51.1873Z" fill="black"/>
<path d="M110.547 50.8285C110.845 50.8285 111.086 50.587 111.086 50.2892C111.086 49.9913 110.845 49.7498 110.547 49.7498C110.25 49.7498 110.009 49.9913 110.009 50.2892C110.009 50.587 110.25 50.8285 110.547 50.8285Z" fill="#FFD77C"/>
<path d="M165.376 114.782H22.0427V175.92H165.376V114.782Z" fill="#65617D"/>
<path opacity="0.1" d="M165.376 114.782H22.0427V116.042H165.376V114.782Z" fill="black"/>
<path d="M167.263 112.444H20.1558V115.68H167.263V112.444Z" fill="#65617D"/>
<path opacity="0.1" d="M167.263 112.444H20.1558V112.984H167.263V112.444Z" fill="black"/>
<path d="M169.986 111.546H17.4303V112.625H169.986V111.546Z" fill="#65617D"/>
<path opacity="0.1" d="M58.0539 116.94H26.6208V126.65H58.0539V116.94Z" fill="black"/>
<path d="M58.4148 116.581H26.9817V126.292H58.4148V116.581Z" fill="#D1D9EC"/>
<path opacity="0.1" d="M58.0539 131.056H26.6208V150.746H58.0539V131.056Z" fill="black"/>
<path d="M58.4148 130.694H26.9817V150.384H58.4148V130.694Z" fill="#D1D9EC"/>
<path opacity="0.1" d="M58.0539 153.711H26.6208V173.401H58.0539V153.711Z" fill="black"/>
<path d="M58.4148 153.352H26.9817V173.042H58.4148V153.352Z" fill="#D1D9EC"/>
<path opacity="0.1" d="M46.8279 120.896H37.847V122.694H46.8279V120.896Z" fill="black"/>
<path d="M46.8279 120.537H37.847V122.336H46.8279V120.537Z" fill="#464A5F"/>
<path opacity="0.1" d="M163.85 116.94H132.417V126.65H163.85V116.94Z" fill="black"/>
<path d="M164.208 116.581H132.775V126.292H164.208V116.581Z" fill="#D1D9EC"/>
<path d="M164.208 129.528H132.775V171.785H164.208V129.528Z" fill="#D1D9EC"/>
<path d="M152.624 120.537H143.643V122.336H152.624V120.537Z" fill="#464A5F"/>
<path opacity="0.1" d="M46.8279 140.405H37.847V142.204H46.8279V140.405Z" fill="black"/>
<path d="M46.8279 140.046H37.847V141.845H46.8279V140.046Z" fill="#464A5F"/>
<path opacity="0.1" d="M46.8279 161.264H37.847V163.063H46.8279V161.264Z" fill="black"/>
<path d="M46.8279 160.905H37.847V162.704H46.8279V160.905Z" fill="#464A5F"/>
<path opacity="0.1" d="M160.301 133.977H137.4V168.051H160.301V133.977Z" fill="black"/>
<path opacity="0.3" d="M159.942 133.618H137.042V167.692H159.942V133.618Z" fill="#FF8822"/>
<path opacity="0.1" d="M167.263 175.317H20.1558V181.43H167.263V175.317Z" fill="black"/>
<path d="M167.263 175.561H20.1558V181.674H167.263V175.561Z" fill="#65617D"/>
<path d="M130.082 119.741H61.1086V164.246H130.082V119.741Z" fill="#464A5F"/>
<path opacity="0.1" d="M61.9155 123.339C61.9155 123.339 100.623 127.295 129.002 123.517V127.024C129.002 127.024 99.9917 130.621 61.9155 126.394V123.339Z" fill="black"/>
<path d="M61.9155 122.978C61.9155 122.978 100.623 126.934 129.002 123.158V126.665C129.002 126.665 99.9917 130.26 61.9155 126.035V122.978Z" fill="#D1D9EC"/>
<path opacity="0.3" d="M122.312 131.519H68.8755V156.964H122.312V131.519Z" fill="#FF8822"/>
<path opacity="0.1" d="M130.082 119.741H61.1086V121.091H130.082V119.741Z" fill="black"/>
<path d="M131.159 110.482H60.031V120.732H131.159V110.482Z" fill="#464A5F"/>
<path opacity="0.1" d="M65.8671 117.762C67.305 117.762 68.4707 116.595 68.4707 115.156C68.4707 113.716 67.305 112.549 65.8671 112.549C64.4292 112.549 63.2635 113.716 63.2635 115.156C63.2635 116.595 64.4292 117.762 65.8671 117.762Z" fill="black"/>
<path d="M65.8671 117.403C67.305 117.403 68.4707 116.236 68.4707 114.797C68.4707 113.357 67.305 112.19 65.8671 112.19C64.4292 112.19 63.2635 113.357 63.2635 114.797C63.2635 116.236 64.4292 117.403 65.8671 117.403Z" fill="#D1D9EC"/>
<path opacity="0.1" d="M72.2444 117.762C73.6824 117.762 74.848 116.595 74.848 115.156C74.848 113.716 73.6824 112.549 72.2444 112.549C70.8065 112.549 69.6409 113.716 69.6409 115.156C69.6409 116.595 70.8065 117.762 72.2444 117.762Z" fill="black"/>
<path d="M72.2444 117.403C73.6824 117.403 74.848 116.236 74.848 114.797C74.848 113.357 73.6824 112.19 72.2444 112.19C70.8065 112.19 69.6409 113.357 69.6409 114.797C69.6409 116.236 70.8065 117.403 72.2444 117.403Z" fill="#D1D9EC"/>
<path opacity="0.1" d="M119.124 117.762C120.562 117.762 121.727 116.595 121.727 115.156C121.727 113.716 120.562 112.549 119.124 112.549C117.686 112.549 116.52 113.716 116.52 115.156C116.52 116.595 117.686 117.762 119.124 117.762Z" fill="black"/>
<path d="M119.124 117.403C120.562 117.403 121.727 116.236 121.727 114.797C121.727 113.357 120.562 112.19 119.124 112.19C117.686 112.19 116.52 113.357 116.52 114.797C116.52 116.236 117.686 117.403 119.124 117.403Z" fill="#D1D9EC"/>
<path opacity="0.1" d="M125.501 117.762C126.939 117.762 128.104 116.595 128.104 115.156C128.104 113.716 126.939 112.549 125.501 112.549C124.063 112.549 122.897 113.716 122.897 115.156C122.897 116.595 124.063 117.762 125.501 117.762Z" fill="black"/>
<path d="M125.501 117.403C126.939 117.403 128.104 116.236 128.104 114.797C128.104 113.357 126.939 112.19 125.501 112.19C124.063 112.19 122.897 113.357 122.897 114.797C122.897 116.236 124.063 117.403 125.501 117.403Z" fill="#D1D9EC"/>
<path opacity="0.1" d="M105.206 112.278H85.3574V118.482H105.206V112.278Z" fill="black"/>
<path d="M104.936 111.919H85.7158V118.123H104.936V111.919Z" fill="#53526B"/>
<path opacity="0.1" d="M66.5863 111.627H65.8672V117.965H66.5863V111.627Z" fill="black"/>
<path d="M66.2279 111.627H65.5088V117.965H66.2279V111.627Z" fill="#53526B"/>
<path opacity="0.1" d="M126.22 111.627H125.501V117.965H126.22V111.627Z" fill="black"/>
<path d="M125.862 111.627H125.143V117.965H125.862V111.627Z" fill="#53526B"/>
<path opacity="0.1" d="M121.618 113.17L121.11 112.661L116.633 117.143L117.142 117.652L121.618 113.17Z" fill="black"/>
<path d="M121.618 112.81L121.109 112.301L116.632 116.783L117.141 117.292L121.618 112.81Z" fill="#53526B"/>
<path opacity="0.1" d="M75.4088 115.517V114.797H69.0778V115.517H75.4088Z" fill="black"/>
<path d="M75.4113 115.156V114.436H69.0803V115.156H75.4113Z" fill="#53526B"/>
<path opacity="0.1" d="M130.082 163.195H61.1086V164.244H130.082V163.195Z" fill="black"/>
<path d="M131.159 163.556H60.031V181.867H131.159V163.556Z" fill="#464A5F"/>
<path d="M56.8814 94.7602C56.5377 94.0915 54.7191 89.9499 54.7191 89.9499L51.6742 82.0476C51.6742 82.0476 49.5119 78.7163 49.5119 78.0964C49.5119 77.4765 45.5797 75.0018 45.5797 75.0018C45.5797 75.0018 42.3862 74.05 42.14 73.9548C41.8937 73.8596 38.1103 72.6052 38.1103 72.6052C38.1103 72.6052 36.6208 70.6528 36.4038 71.158L36.3819 71.1214C36.077 70.5516 35.8842 69.9286 35.8139 69.2861C35.8139 69.23 35.7968 69.169 35.7895 69.1104C36.7711 68.4447 37.5757 67.5492 38.1335 66.5018C38.6913 65.4543 38.9854 64.2864 38.9903 63.0994C38.9927 62.7895 38.9756 62.4798 38.9391 62.172C38.9654 62.155 38.9932 62.1403 39.022 62.1281C39.083 62.1012 39.0683 62.0793 39.022 62.0573L39.0683 62.0354C39.1512 61.9987 39.0976 61.9719 39.0171 61.9402C39.1293 61.8914 38.9879 61.8596 38.8757 61.8084C38.8757 61.7767 38.8636 61.7425 38.8562 61.7108C38.8828 61.6488 38.8985 61.5828 38.9026 61.5155L38.9318 61.5302C38.961 61.4074 38.961 61.2795 38.9318 61.1568C38.9259 61.1819 38.9177 61.2064 38.9074 61.23C38.9027 61.1123 38.8762 60.9964 38.8294 60.8883C38.7724 60.8039 38.7024 60.729 38.6222 60.6662L38.6027 60.6516L38.8124 58.5161C41.884 58.3697 42.4228 53.147 41.7231 52.8468C41.0235 52.5466 41.7231 51.9243 41.7231 50.665C41.7231 49.4057 39.4047 48 39.4047 48C39.4047 48 38.4296 48.4881 36.9255 46.0622C35.4214 43.6363 29.8559 43.2507 29.4853 43.8804C29.1148 44.51 26.6282 45.3447 23.3908 46.255C20.1534 47.1653 20.7506 51.0042 21.2894 51.8291C21.7338 52.5099 21.9942 53.2945 22.0451 54.1061C22.0451 54.5942 23.069 56.6247 23.069 56.6247C22.7448 57.33 23.5565 61.1934 23.8003 62.2916C23.8003 62.3258 23.8003 62.3599 23.8003 62.3941C23.7889 62.4115 23.7783 62.4294 23.7686 62.4478C23.7162 62.5622 23.6992 62.6897 23.7199 62.8139C23.7014 62.9489 23.7199 63.0864 23.7735 63.2117C23.7925 64.246 24.0318 65.2643 24.4753 66.1986C24.9188 67.1329 25.5564 67.9617 26.3454 68.6296C26.3454 68.6955 26.3454 68.7614 26.3576 68.8297C26.4015 69.7278 26.4283 70.7821 26.382 71.8023C26.382 71.8535 26.382 71.9048 26.382 71.956C26.2037 71.9928 26.0365 72.0706 25.8935 72.1833C25.7504 72.296 25.6356 72.4404 25.558 72.6052C25.2533 73.1934 23.4859 74.0964 23.4859 74.0964C23.4859 74.0964 20.3898 74.2404 20.0949 74.8114C19.7999 75.3825 15.3289 77.2861 15.3289 77.2861C15.3289 77.2861 12.9691 78.6674 13.3129 80.2391C13.4933 81.0592 12.9886 82.3355 12.467 83.3654C11.3728 82.9513 10.2339 82.667 9.07353 82.5186L11.5796 84.9176L11.4967 85.047L10.0706 90.0939C10.0706 90.0939 9.58303 91.856 9.09547 92.2904C8.60791 92.7248 9.53671 96.6223 9.53671 96.6223C9.53671 96.6223 8.99795 99.385 8.56159 100.098C8.12522 100.81 9.24905 102.575 9.24905 102.575L11.5113 107.714L17.4864 109.232L18.5298 109.455C18.5103 109.577 18.4908 109.699 18.4688 109.823C18.1787 111.461 17.8009 112.966 17.3377 113.374C16.209 114.375 16.2578 118.848 16.2578 118.848L16.3065 125.181C16.3065 125.181 16.699 132.991 16.504 133.274C16.3796 133.455 16.6283 133.747 17.2841 134.006C17.267 134.126 17.2475 134.25 17.2304 134.365C17.0452 135.661 16.9623 137.137 17.3865 137.782C17.5707 138.135 17.6716 138.525 17.6814 138.924C17.6814 139.544 18.6151 140.83 18.6151 140.83C18.6151 140.83 17.8838 146.113 19.1027 147.922C20.3216 149.73 21.3625 153.015 20.7726 153.779C20.7726 153.779 19.7414 156.017 20.2338 157.018C20.7263 158.018 20.2338 158.589 19.5927 158.826C18.9515 159.063 19.01 161.023 19.01 161.023L20.1826 170.296C20.1826 170.296 20.8213 172.203 20.2826 172.869C19.7438 173.535 19.7414 176.866 20.5775 178.011C21.4137 179.156 19.3903 181.269 19.3903 181.269C19.3903 181.269 18.1714 183.031 20.1217 183.602C20.1217 183.602 20.5142 183.697 19.7779 184.459C19.0417 185.22 18.893 186.167 19.3855 186.506C19.4881 186.567 19.5948 186.62 19.7048 186.665C19.6853 186.777 19.6658 186.894 19.6414 187.019C19.4537 188.012 19.0978 189.308 18.4518 189.933C17.1982 191.218 16.1165 192.661 15.2339 194.226C14.5586 195.507 14.2587 196.703 15.012 197.267C16.7819 198.599 19.0417 199.026 20.3752 198.504C21.7087 197.982 23.5687 196.361 23.5687 196.361L24.0124 194.504C24.0124 194.504 23.7174 193.362 25.1899 192.932C26.6623 192.503 28.0397 190.98 28.0397 190.98V188.505C28.3975 188.302 28.7427 188.077 29.0733 187.832C29.0733 187.832 29.7608 185.403 29.0733 184.595C28.3859 183.788 28.1396 183.5 29.0246 182.975C29.9095 182.45 30.0289 181.311 29.378 180.31C28.7271 179.309 27.6959 177.835 28.5809 175.739C29.4658 173.642 29.7998 167.217 29.7998 167.217C29.7998 167.217 29.3878 162.838 29.7998 161.847C30.2118 160.857 29.3268 158.848 29.3268 158.848C29.3268 158.848 29.6096 156.376 30.163 155.221C30.7164 154.067 31.1381 148.032 31.1381 148.032C31.1381 148.032 32.1133 145.462 32.1133 143.795C32.1133 142.128 30.5921 138.131 32.8446 137.081C32.8446 137.081 33.8197 137.94 33.4346 141.367C33.4346 141.367 34.5633 145.367 34.5633 146.604C34.5633 147.841 35.3994 152.317 35.3994 152.317C35.3994 152.317 35.4969 153.745 35.8407 154.27C36.1844 154.794 35.8407 156.222 35.8407 156.222C35.8407 156.222 37.1181 157.413 36.7743 158.174C36.4306 158.936 36.8329 160.654 36.8329 160.654L36.5281 171.314C36.5281 171.314 35.6456 175.885 37.708 178.636C37.708 178.636 36.9767 182.682 36.5281 182.968C36.0796 183.253 38.1517 185.73 38.1517 185.73C38.1517 185.73 37.5788 187.334 38.7417 187.412V190.062C39.1442 190.776 39.6975 191.393 40.3628 191.871C41.4428 192.632 41.0015 195.251 41.0015 195.251C41.0015 195.251 42.3764 198.584 46.0136 197.869C49.6509 197.154 50.1409 196.822 49.9434 195.631C49.8727 195.197 49.7167 194.411 49.49 193.542C49.0999 192.015 48.5002 190.17 47.7835 189.259C46.6548 187.824 45.7211 184.825 45.7211 184.825C45.7211 184.825 45.2774 183.824 45.7211 183.492C46.1648 183.16 45.9649 182.541 45.9649 182.541C45.9649 182.541 46.3939 181.303 46.0063 180.542C45.6187 179.78 46.7499 178.209 46.7499 178.209L46.4061 170.887L46.7499 160.222C46.7499 160.222 45.2262 158.46 45.8649 157.413C46.5036 156.366 45.1336 154.89 45.1336 154.89C45.1336 154.89 44.9849 154.843 45.3774 153.652C45.6123 152.95 45.5767 152.186 45.2774 151.509C45.2774 151.509 44.4437 148.559 45.9161 146.321C45.9161 146.321 46.5548 143.368 46.7523 141.845C46.8888 140.786 47.7274 136.832 48.2418 134.523L48.3247 134.148C49.056 134.187 49.6021 134.233 49.6021 134.233C49.6021 134.233 48.4734 126.377 49.6021 124.759C50.7308 123.141 48.7172 110.763 48.7172 110.763C48.7172 110.763 48.2296 108.6 47.9395 106.392C47.9225 106.267 47.9078 106.148 47.8908 106.016C48.8029 105.941 49.7187 105.921 50.6333 105.955C52.9931 106.096 55.3017 105.193 55.3505 104.288C55.3992 103.383 56.6791 99.8121 56.8741 99.0042C57.0691 98.1964 57.2227 95.4264 56.8814 94.7602Z" fill="url(#paint0_linear)"/>
<path d="M28.2128 186.599V191.007C28.2128 191.007 26.8866 192.525 25.4654 192.959C24.0441 193.394 24.3293 194.524 24.3293 194.524L23.9052 196.371C23.9052 196.371 22.1036 197.982 20.8262 198.504C19.5488 199.026 17.3694 198.599 15.6654 197.272C14.934 196.713 15.229 195.519 15.8799 194.245C16.7262 192.694 17.7684 191.257 18.9808 189.972C19.6024 189.35 19.9559 188.059 20.1266 187.07C20.2631 186.338 20.3045 185.755 20.3045 185.755L28.2128 186.599Z" fill="#4C495A"/>
<path opacity="0.1" d="M28.2128 189.889V191.007C28.2128 191.007 26.8866 192.525 25.4654 192.959C24.0441 193.393 24.3293 194.523 24.3293 194.523L23.9052 196.371C23.9052 196.371 22.1036 197.982 20.8262 198.504C19.5488 199.026 17.3694 198.599 15.6654 197.271C14.934 196.713 15.229 195.519 15.8799 194.245C15.8482 195.585 16.2456 197.088 18.1739 197.035C20.2581 196.964 22.2653 196.229 23.9027 194.936C23.9027 194.936 23.854 191.81 26.0334 191.097C26.8298 190.836 27.5695 190.426 28.2128 189.889Z" fill="black"/>
<path d="M45.5382 197.882C42.0351 198.592 40.709 195.273 40.709 195.273C40.709 195.273 41.1356 192.666 40.0946 191.907C39.4503 191.427 38.9172 190.812 38.532 190.106V185.747L42.7933 182.714L45.0994 184.757L45.2555 184.893C45.2555 184.893 46.155 187.88 47.2447 189.308C47.9346 190.214 48.5124 192.051 48.8902 193.574C49.1072 194.448 49.2583 195.222 49.3266 195.653C49.5167 196.837 49.0438 197.169 45.5382 197.882Z" fill="#4C495A"/>
<path opacity="0.1" d="M45.5382 197.882C42.0351 198.592 40.709 195.273 40.709 195.273C40.709 195.273 41.1356 192.666 40.0946 191.907C39.4503 191.426 38.9172 190.812 38.532 190.106V188.417C39.2073 189.132 40.4822 190.516 40.7577 191.102C41.1356 191.907 41.1843 194.848 42.9347 195.368C44.685 195.888 48.0955 196.364 48.3807 195.036C48.4978 194.531 48.6686 194.04 48.8902 193.572C49.1072 194.445 49.2583 195.219 49.3266 195.651C49.5167 196.837 49.0438 197.169 45.5382 197.882Z" fill="black"/>
<path opacity="0.1" d="M20.3021 185.747L28.2128 186.599V188.93C27.3206 189.459 26.0431 190.021 25.324 189.442C24.2635 188.593 21.1115 187.514 20.1266 187.063C20.2607 186.321 20.3021 185.747 20.3021 185.747Z" fill="black"/>
<path opacity="0.1" d="M45.2555 185.272C44.1658 184.893 42.2253 186.553 39.668 187.595C39.312 187.759 38.924 187.843 38.532 187.839V185.738L42.7933 182.704L45.0994 184.747C45.135 184.926 45.1872 185.102 45.2555 185.272Z" fill="black"/>
<path d="M48.0492 133.086C48.0492 133.086 47.8981 133.782 47.686 134.794C47.1985 137.098 46.3793 141.037 46.2501 142.092C46.06 143.607 45.4457 146.545 45.4457 146.545C44.0244 148.774 44.8289 151.712 44.8289 151.712C45.1164 152.388 45.1502 153.146 44.924 153.845C44.5461 155.031 44.6802 155.065 44.6802 155.065C44.6802 155.065 46.0064 156.53 45.3896 157.579C44.7728 158.628 46.2428 160.376 46.2428 160.376L45.9113 170.992L46.2526 178.304C46.2526 178.304 45.1629 179.868 45.5359 180.627C45.9089 181.386 45.4944 182.619 45.4944 182.619C45.4944 182.619 45.6846 183.234 45.2506 183.566C44.8167 183.898 45.2506 184.893 45.2506 184.893C44.1609 184.515 42.2204 186.172 39.6632 187.217C37.1059 188.261 37.9567 185.794 37.9567 185.794C37.9567 185.794 35.9675 183.329 36.3941 183.043C36.8207 182.758 37.5301 178.731 37.5301 178.731C35.5408 175.983 36.3941 171.431 36.3941 171.431L36.6866 160.818C36.6866 160.818 36.299 159.109 36.6306 158.35C36.9621 157.591 35.731 156.398 35.731 156.398C35.731 156.398 36.0625 154.977 35.731 154.445C35.3995 153.913 35.3044 152.493 35.3044 152.493C35.3044 152.493 34.4999 148.037 34.4999 146.804C34.4999 145.572 33.4102 141.591 33.4102 141.591C33.7905 138.175 32.8422 137.325 32.8422 137.325C30.6652 138.367 32.1328 142.348 32.1328 144.007C32.1328 145.667 31.1869 148.227 31.1869 148.227C31.1869 148.227 30.7603 154.245 30.2386 155.383C29.7169 156.52 29.4317 159.012 29.4317 159.012C29.4317 159.012 30.2849 161.003 29.8851 161.999C29.4853 162.995 29.8851 167.368 29.8851 167.368C29.8851 167.368 29.5731 173.767 28.7223 175.851C27.8715 177.935 28.8637 179.407 29.4902 180.403C30.1167 181.398 29.9997 182.536 29.1465 183.056C28.2932 183.575 28.5321 183.863 29.1952 184.669C29.8583 185.474 29.1952 187.893 29.1952 187.893C29.1952 187.893 26.4966 190.026 25.3118 189.076C24.127 188.127 20.3411 186.897 19.8682 186.565C19.3952 186.233 19.5366 185.284 20.246 184.527C20.9554 183.771 20.5776 183.673 20.5776 183.673C18.6834 183.104 19.8682 181.35 19.8682 181.35C19.8682 181.35 21.8184 179.265 21.0042 178.128C20.19 176.991 20.1997 173.672 20.719 173.003C21.2382 172.334 20.6239 170.443 20.6239 170.443L19.4952 161.201C19.4952 161.201 19.4416 159.248 20.0559 159.019C20.6702 158.79 21.1456 158.214 20.6727 157.218C20.1997 156.222 21.1919 153.996 21.1919 153.996C21.7624 153.237 20.7677 149.967 19.583 148.166C18.3982 146.365 19.11 141.103 19.11 141.103C19.11 141.103 18.2105 139.822 18.2105 139.207C18.2013 138.811 18.1039 138.423 17.9252 138.07C17.5181 137.418 17.5961 135.949 17.7741 134.653C17.9472 133.406 18.2105 132.329 18.2105 132.329L48.0492 133.086Z" fill="#5F5D7E"/>
<path d="M38.7685 79.38L29.4316 81.5618C29.4316 81.5618 24.8486 77.6741 25.9846 75.5948C26.3746 74.8797 26.5477 73.657 26.6062 72.3636C26.6525 71.3532 26.6257 70.2964 26.5843 69.4032C26.516 68.1122 26.4112 67.1579 26.4112 67.1579C26.4112 67.1579 35.9747 61.7546 35.6432 67.1579C35.5755 68.0584 35.5968 68.9633 35.7066 69.8596C35.7747 70.4988 35.9615 71.1195 36.2575 71.69C36.7695 72.6003 37.4009 72.6149 37.4009 72.6149L38.7685 79.38Z" fill="#FDC2CC"/>
<path opacity="0.1" d="M35.7066 69.8523C34.3587 70.8205 32.7227 71.3025 31.0658 71.2196C29.409 71.1367 27.8291 70.4938 26.5843 69.3959C26.5161 68.1049 26.4113 67.1507 26.4113 67.1507C26.4113 67.1507 35.9748 61.7474 35.6432 67.1507C35.5756 68.0511 35.5968 68.956 35.7066 69.8523Z" fill="black"/>
<path d="M31.4307 71.0385C35.4833 71.0385 38.7685 67.7496 38.7685 63.6926C38.7685 59.6355 35.4833 56.3466 31.4307 56.3466C27.3781 56.3466 24.0929 59.6355 24.0929 63.6926C24.0929 67.7496 27.3781 71.0385 31.4307 71.0385Z" fill="#FDC2CC"/>
<path opacity="0.1" d="M38.7685 79.3801L29.4316 81.5619C29.4316 81.5619 24.8486 77.6742 25.9846 75.5949C26.3746 74.8798 26.5477 73.6571 26.6062 72.3636C26.8139 73.4891 27.4197 74.502 28.3127 75.2166C30.4433 76.6394 30.1118 78.3893 30.1118 78.3893L33.9465 78.2477C33.7027 76.6833 35.1313 75.8316 35.6042 75.6412C36.0771 75.4509 35.848 74.5992 35.848 74.5992L36.2575 71.6901C36.7695 72.6004 37.4009 72.615 37.4009 72.615L38.7685 79.3801Z" fill="black"/>
<path opacity="0.1" d="M48.0492 133.086C48.0492 133.086 47.8981 133.782 47.686 134.794C46.6548 134.741 45.2921 134.699 44.6875 134.838C43.6465 135.082 39.4779 135.17 39.4779 135.17L29.1562 135.536V135.219C27.9693 135.231 26.7841 135.313 25.6067 135.463C23.854 135.707 21.109 135.368 19.3562 135.082C18.8168 135.005 18.2888 134.863 17.7838 134.658C17.9569 133.411 18.2202 132.334 18.2202 132.334L48.0492 133.086Z" fill="black"/>
<path d="M47.2448 102.985C47.0936 103.871 47.2033 105.34 47.3935 106.787C47.6787 108.983 48.1443 111.138 48.1443 111.138C48.1443 111.138 50.0946 123.463 48.9951 125.074C47.8957 126.685 48.9951 134.506 48.9951 134.506C48.9951 134.506 45.7284 134.223 44.6875 134.46C43.6466 134.697 39.4779 134.792 39.4779 134.792L29.1562 135.158V134.838C27.9693 134.85 26.7842 134.932 25.6068 135.082C23.854 135.326 21.109 134.987 19.3562 134.704C17.6034 134.421 16.894 133.85 17.0842 133.567C17.2743 133.284 16.894 125.513 16.894 125.513L16.8477 119.209C16.8477 119.209 16.799 114.753 17.8887 113.757C18.3323 113.352 18.698 111.854 18.9784 110.221C19.3782 107.861 19.5927 105.225 19.5927 105.225L12.3963 85.945L12.2549 85.5643C12.2549 85.5643 14.3368 82.3404 14.0052 80.776C13.6737 79.2117 15.9555 77.8474 15.9555 77.8474C15.9555 77.8474 20.2631 75.9511 20.5483 75.3825C20.8335 74.8138 23.815 74.6723 23.815 74.6723C23.815 74.6723 25.5214 73.7718 25.8115 73.1885C25.8834 73.0253 25.9929 72.8816 26.131 72.7692C26.2692 72.6568 26.4321 72.5788 26.6063 72.5417C26.8069 73.68 27.4132 74.7067 28.3127 75.4313C30.4434 76.8517 30.1118 78.604 30.1118 78.604L33.9465 78.4624C33.7027 76.898 35.1313 76.0439 35.6042 75.8559C36.0772 75.668 35.848 74.8114 35.848 74.8114L36.2917 71.7437C36.4965 71.2336 37.9299 73.186 37.9299 73.186C37.9299 73.186 41.5866 74.4331 41.8133 74.5283C42.04 74.6235 45.1287 75.5704 45.1287 75.5704C45.1287 75.5704 48.9147 78.0353 48.9147 78.6503C48.9147 79.2653 50.999 82.5869 50.999 82.5869C50.999 82.5869 50.9746 82.7187 50.9283 82.9603C50.4334 85.5448 47.5909 100.947 47.2448 102.985Z" fill="#FF8822"/>
<path d="M32.0938 95.3068C32.0938 95.3068 23.9027 93.1274 23.0958 92.6052C22.2889 92.0829 17.5571 95.1165 23.3396 99.2409C23.3396 99.2409 30.4093 100.705 32.2937 99.2409C34.1781 97.7766 32.0938 95.3068 32.0938 95.3068Z" fill="#FDC2CC"/>
<path opacity="0.1" d="M49.7996 82.3185L50.7942 82.3673L53.7196 90.2355C53.7196 90.2355 55.4724 94.36 55.8039 95.0238C56.1354 95.6876 55.9941 98.4405 55.8039 99.241C55.6138 100.042 54.3827 103.602 54.3412 104.503C54.2998 105.403 52.0692 106.304 49.7947 106.162C47.5202 106.021 42.2204 106.731 42.2204 106.731C42.2204 106.731 36.5574 106.138 33.0811 107.915C33.0811 107.915 30.8578 103.317 31.0943 94.7358C31.0943 94.7358 35.024 94.4918 36.0186 94.8774C37.0133 95.263 41.8426 96.3417 42.4569 95.7779C43.0712 95.2142 45.8698 96.8225 45.8698 96.8225C46.0124 96.5099 46.0862 96.1703 46.0862 95.8267C46.0862 95.4831 46.0124 95.1435 45.8698 94.831C45.3969 93.6937 44.5924 90.1379 45.626 89.0006C46.6597 87.8633 49.7996 82.3185 49.7996 82.3185Z" fill="black"/>
<path opacity="0.1" d="M47.3935 106.787C45.0434 106.946 42.4155 107.3 42.4155 107.3C42.4155 107.3 36.7524 106.706 33.2761 108.483C33.2761 108.483 31.0504 103.885 31.2869 95.3044C31.2869 95.3044 35.2166 95.0604 36.2113 95.446C37.2059 95.8316 42.0352 96.9103 42.652 96.3465C43.2687 95.7828 46.0649 97.3911 46.0649 97.3911C46.2069 97.0783 46.2803 96.7388 46.2803 96.3953C46.2803 96.0518 46.2069 95.7123 46.0649 95.3996C45.5919 94.2623 44.7875 90.7065 45.8211 89.5692C46.8547 88.4319 49.9873 82.8846 49.9873 82.8846L50.9112 82.9286C50.4237 85.5424 47.5885 100.944 47.2423 102.982C47.0936 103.871 47.2033 105.34 47.3935 106.787Z" fill="black"/>
<path d="M49.9897 82.5088L50.9844 82.5576L53.9097 90.4258C53.9097 90.4258 55.6625 94.5478 55.9941 95.2116C56.3256 95.8755 56.1818 98.6284 55.9941 99.4313C55.8064 100.234 54.5728 103.792 54.5314 104.693C54.4899 105.594 52.2569 106.494 49.9849 106.35C47.7128 106.206 42.4106 106.921 42.4106 106.921C42.4106 106.921 36.7451 106.328 33.2712 108.105C33.2712 108.105 31.0455 103.507 31.282 94.9261C31.282 94.9261 35.2117 94.6821 36.2064 95.0677C37.201 95.4533 42.0303 96.532 42.6471 95.9682C43.2638 95.4044 46.06 97.0103 46.06 97.0103C46.2021 96.6981 46.2756 96.3589 46.2756 96.0158C46.2756 95.6727 46.2021 95.3335 46.06 95.0213C45.5871 93.8816 44.7826 90.3282 45.8162 89.1909C46.8498 88.0536 49.9897 82.5088 49.9897 82.5088Z" fill="#FF8822"/>
<path d="M39.9986 99.9187L41.1799 100.651L47.7645 90.0071L46.5831 89.2747L39.9986 99.9187Z" fill="#DFE6F5"/>
<path d="M51.1294 88.5756C52.2934 86.694 52.169 84.5065 50.8515 83.6897C49.534 82.8729 47.5224 83.7361 46.3584 85.6176C45.1944 87.4992 45.3189 89.6867 46.6364 90.5035C47.9538 91.3203 49.9654 90.4572 51.1294 88.5756Z" fill="#DFE6F5"/>
<path opacity="0.1" d="M50.4557 88.158C51.2908 86.8081 51.2013 85.2386 50.2558 84.6524C49.3104 84.0662 47.867 84.6853 47.0319 86.0352C46.1968 87.3851 46.2864 88.9546 47.2318 89.5407C48.1773 90.1269 49.6207 89.5078 50.4557 88.158Z" fill="black"/>
<path d="M36.633 105.36L37.8143 106.093L41.9114 99.47L40.73 98.7375L36.633 105.36Z" fill="#53526B"/>
<path d="M29.6754 105.83L32.5643 105.025C32.5643 105.025 46.8157 105.403 42.0327 99.5264C42.0327 99.5264 39.5242 97.1079 34.2683 99.0505C29.0124 100.993 27.5448 101.232 27.5448 101.232L29.6754 105.83Z" fill="#FDC2CC"/>
<path opacity="0.1" d="M27.5473 81.0397C27.861 81.0397 28.1153 80.7852 28.1153 80.4711C28.1153 80.1571 27.861 79.9025 27.5473 79.9025C27.2336 79.9025 26.9792 80.1571 26.9792 80.4711C26.9792 80.7852 27.2336 81.0397 27.5473 81.0397Z" fill="black"/>
<path opacity="0.1" d="M37.3009 80.7077C37.6146 80.7077 37.8689 80.4531 37.8689 80.1391C37.8689 79.825 37.6146 79.5704 37.3009 79.5704C36.9872 79.5704 36.7329 79.825 36.7329 80.1391C36.7329 80.4531 36.9872 80.7077 37.3009 80.7077Z" fill="black"/>
<path d="M27.5473 80.8492C27.861 80.8492 28.1153 80.5946 28.1153 80.2806C28.1153 79.9665 27.861 79.7119 27.5473 79.7119C27.2336 79.7119 26.9792 79.9665 26.9792 80.2806C26.9792 80.5946 27.2336 80.8492 27.5473 80.8492Z" fill="white"/>
<path opacity="0.1" d="M28.3541 88.9078C28.6678 88.9078 28.9222 88.6532 28.9222 88.3391C28.9222 88.0251 28.6678 87.7705 28.3541 87.7705C28.0404 87.7705 27.7861 88.0251 27.7861 88.3391C27.7861 88.6532 28.0404 88.9078 28.3541 88.9078Z" fill="black"/>
<path opacity="0.1" d="M37.5862 88.3392C37.8999 88.3392 38.1542 88.0846 38.1542 87.7705C38.1542 87.4565 37.8999 87.2019 37.5862 87.2019C37.2725 87.2019 37.0182 87.4565 37.0182 87.7705C37.0182 88.0846 37.2725 88.3392 37.5862 88.3392Z" fill="black"/>
<path d="M28.3541 88.7176C28.6678 88.7176 28.9222 88.463 28.9222 88.149C28.9222 87.8349 28.6678 87.5803 28.3541 87.5803C28.0404 87.5803 27.7861 87.8349 27.7861 88.149C27.7861 88.463 28.0404 88.7176 28.3541 88.7176Z" fill="white"/>
<path opacity="0.1" d="M37.3496 115.788C37.6633 115.788 37.9176 115.533 37.9176 115.219C37.9176 114.905 37.6633 114.65 37.3496 114.65C37.0359 114.65 36.7816 114.905 36.7816 115.219C36.7816 115.533 37.0359 115.788 37.3496 115.788Z" fill="black"/>
<path opacity="0.1" d="M29.8705 115.788C30.1842 115.788 30.4385 115.533 30.4385 115.219C30.4385 114.905 30.1842 114.65 29.8705 114.65C29.5568 114.65 29.3025 114.905 29.3025 115.219C29.3025 115.533 29.5568 115.788 29.8705 115.788Z" fill="black"/>
<path d="M37.3496 115.597C37.6633 115.597 37.9176 115.343 37.9176 115.029C37.9176 114.715 37.6633 114.46 37.3496 114.46C37.0359 114.46 36.7816 114.715 36.7816 115.029C36.7816 115.343 37.0359 115.597 37.3496 115.597Z" fill="white"/>
<path opacity="0.1" d="M30.4385 125.31C30.7522 125.31 31.0065 125.056 31.0065 124.742C31.0065 124.428 30.7522 124.173 30.4385 124.173C30.1248 124.173 29.8705 124.428 29.8705 124.742C29.8705 125.056 30.1248 125.31 30.4385 125.31Z" fill="black"/>
<path opacity="0.1" d="M37.5862 124.742C37.8999 124.742 38.1542 124.487 38.1542 124.173C38.1542 123.859 37.8999 123.605 37.5862 123.605C37.2725 123.605 37.0182 123.859 37.0182 124.173C37.0182 124.487 37.2725 124.742 37.5862 124.742Z" fill="black"/>
<path d="M30.4385 125.123C30.7522 125.123 31.0065 124.868 31.0065 124.554C31.0065 124.24 30.7522 123.985 30.4385 123.985C30.1248 123.985 29.8705 124.24 29.8705 124.554C29.8705 124.868 30.1248 125.123 30.4385 125.123Z" fill="white"/>
<path d="M29.8705 115.597C30.1842 115.597 30.4385 115.343 30.4385 115.029C30.4385 114.715 30.1842 114.46 29.8705 114.46C29.5568 114.46 29.3025 114.715 29.3025 115.029C29.3025 115.343 29.5568 115.597 29.8705 115.597Z" fill="white"/>
<path d="M37.5862 124.552C37.8999 124.552 38.1542 124.297 38.1542 123.983C38.1542 123.669 37.8999 123.414 37.5862 123.414C37.2725 123.414 37.0182 123.669 37.0182 123.983C37.0182 124.297 37.2725 124.552 37.5862 124.552Z" fill="white"/>
<path d="M37.3009 80.5174C37.6146 80.5174 37.8689 80.2628 37.8689 79.9488C37.8689 79.6347 37.6146 79.3801 37.3009 79.3801C36.9872 79.3801 36.7329 79.6347 36.7329 79.9488C36.7329 80.2628 36.9872 80.5174 37.3009 80.5174Z" fill="white"/>
<path d="M37.5862 88.1489C37.8999 88.1489 38.1542 87.8943 38.1542 87.5802C38.1542 87.2662 37.8999 87.0116 37.5862 87.0116C37.2725 87.0116 37.0182 87.2662 37.0182 87.5802C37.0182 87.8943 37.2725 88.1489 37.5862 88.1489Z" fill="white"/>
<path opacity="0.1" d="M38.4369 107.536C38.4369 107.536 38.5322 120.525 38.8179 122.846C38.8179 122.846 38.9205 108.149 38.4369 107.536Z" fill="black"/>
<path opacity="0.1" d="M40.8528 113.557C40.6578 113.557 44.7338 128.771 44.924 129.862C45.1141 130.953 41.9889 113.557 40.8528 113.557Z" fill="black"/>
<path opacity="0.1" d="M44.0707 111.092C44.0707 111.234 46.3452 119.339 47.4836 119.766C48.6221 120.193 44.0707 111.092 44.0707 111.092Z" fill="black"/>
<path opacity="0.1" d="M53.02 95.3069C53.02 95.3069 48.1907 95.5217 48.0493 96.2197C47.9079 96.9177 53.02 95.3069 53.02 95.3069Z" fill="black"/>
<path opacity="0.1" d="M44.4973 157.108C44.4973 157.108 41.0405 158.572 41.5719 158.67C42.1034 158.768 44.4973 157.108 44.4973 157.108Z" fill="black"/>
<path opacity="0.1" d="M37.3472 154.936C37.2131 154.633 39.668 156.156 39.668 156.359C39.668 156.561 37.5374 155.363 37.3472 154.936Z" fill="black"/>
<path opacity="0.1" d="M40.5676 159.912C40.5676 159.912 43.2663 159.778 43.4564 160.818C43.6466 161.857 40.5676 159.912 40.5676 159.912Z" fill="black"/>
<path opacity="0.1" d="M21.1553 159.907C21.1553 159.907 24.0806 159.333 24.3244 159.907C24.5682 160.481 21.1553 159.907 21.1553 159.907Z" fill="black"/>
<path opacity="0.1" d="M22.245 177.784C22.245 177.784 22.4376 180.2 21.7257 180.769C21.0139 181.337 22.245 177.784 22.245 177.784Z" fill="black"/>
<path opacity="0.1" d="M21.8867 182.902C22.8131 182.997 27.6887 182.142 27.6424 182.902C27.5961 183.662 21.8867 182.902 21.8867 182.902Z" fill="black"/>
<path opacity="0.1" d="M44.2608 179.963C44.2608 179.963 42.5983 179.719 43.0029 180.831L44.2608 179.963Z" fill="black"/>
<path opacity="0.1" d="M13.3422 85.3569H12.4426L11.0701 90.3819C11.0701 90.3819 10.5972 92.1366 10.1243 92.5637C9.65134 92.9908 10.5484 96.8761 10.5484 96.8761C10.5484 96.8761 10.0292 99.6265 9.60258 100.337C9.17597 101.047 10.2657 102.802 10.2657 102.802L12.4426 107.927L18.2202 109.445C18.2202 109.445 28.4005 111.673 28.8735 112.005C29.3464 112.337 29.773 111.861 30.0924 108.781C30.4117 105.701 31.3235 99.7266 32.0426 99.4435C32.0426 99.4435 26.3601 100.059 25.8872 99.9633C25.4142 99.8682 23.1422 100.012 23.1422 100.012C23.1422 100.012 20.1583 99.8218 19.6854 100.107C19.2124 100.393 20.2997 98.7309 20.2997 98.7309C20.499 97.9701 20.499 97.1707 20.2997 96.41C19.9706 95.1189 19.7829 80.6125 13.3422 85.3569Z" fill="black"/>
<path opacity="0.1" d="M31.8548 100C31.1454 100.283 30.2459 106.258 29.9046 109.337C29.5633 112.417 29.1464 112.893 28.6857 112.561C28.3005 112.29 21.5161 110.77 18.9808 110.209C19.3806 107.849 19.5951 105.213 19.5951 105.213L12.3987 85.9329H13.1568C19.5951 81.191 19.7852 95.695 20.1168 96.9763C20.3161 97.737 20.3161 98.5364 20.1168 99.2972C20.1168 99.2972 19.0271 100.957 19.5 100.674C19.973 100.391 22.9568 100.578 22.9568 100.578C22.9568 100.578 25.2289 100.437 25.7042 100.532C26.1796 100.627 31.8548 100 31.8548 100Z" fill="black"/>
<path d="M13.1544 85.5425H12.2549L10.88 90.5675C10.88 90.5675 10.407 92.3198 9.93409 92.7469C9.46115 93.174 10.3607 97.0715 10.3607 97.0715C10.3607 97.0715 9.83901 99.8195 9.4124 100.532C8.98578 101.245 10.0755 102.995 10.0755 102.995L12.2549 108.12L18.03 109.638C18.03 109.638 28.2103 111.863 28.6833 112.195C29.1562 112.527 29.5828 112.054 29.9022 108.974C30.2215 105.894 31.1211 99.9195 31.8524 99.6364C31.8524 99.6364 26.1723 100.251 25.6994 100.156C25.2265 100.061 22.952 100.205 22.952 100.205C22.952 100.205 19.9681 100.015 19.4952 100.298C19.0222 100.581 20.1119 98.9214 20.1119 98.9214C20.3114 98.1606 20.3114 97.3612 20.1119 96.6004C19.7828 95.307 19.5927 80.803 13.1544 85.5425Z" fill="#FF8822"/>
<path opacity="0.1" d="M16.231 102.702C16.231 102.702 13.6274 107.632 13.1545 107.063C12.6815 106.494 16.231 102.702 16.231 102.702Z" fill="black"/>
<path opacity="0.1" d="M13.5322 99.895C13.5322 99.895 11.1188 101.896 12.2548 102.416C13.3909 102.936 13.5322 99.895 13.5322 99.895Z" fill="black"/>
<path opacity="0.1" d="M15.8043 97.4399C15.9945 97.4888 19.3099 98.1477 19.3562 98.4332C19.4025 98.7188 15.8043 97.4399 15.8043 97.4399Z" fill="black"/>
<path opacity="0.1" d="M38.7904 62.7163C38.6875 62.7524 38.5995 62.822 38.5408 62.914C38.482 63.0061 38.4557 63.1152 38.4662 63.2239C38.2736 63.3947 38.0006 63.1946 37.8446 62.9799C37.6886 62.7651 37.5057 62.4918 37.2644 62.5259C37.15 62.5624 37.039 62.609 36.9328 62.665C36.555 62.7846 36.2356 62.3404 36.0235 61.95L34.9143 59.8975C34.183 60.3295 33.2981 59.878 32.5643 59.4313C31.8305 58.9847 30.9553 58.5332 30.2118 58.9628C29.1221 59.5924 29.0831 61.6913 27.9544 62.2086C27.5912 62.377 27.1694 62.3404 26.8306 62.5698C26.4917 62.7993 26.3186 63.2361 26.1675 63.6534C26.1134 63.8924 25.9834 64.1073 25.7969 64.266C25.6791 64.3284 25.5475 64.3603 25.4142 64.3587C25.0826 64.4143 24.742 64.3657 24.4391 64.2196C24.2805 64.1193 24.1605 63.9683 24.0986 63.791C24.0366 63.6138 24.0363 63.4208 24.0978 63.2434C24.1069 63.2239 24.1175 63.2052 24.1295 63.1873C24.2504 63.0404 24.3588 62.8837 24.4537 62.7187C24.5683 62.4185 24.4049 62.0671 24.4537 61.7425C24.5122 61.1861 25.1022 60.8908 25.2021 60.3441C25.2435 60.1293 25.2021 59.8999 25.2387 59.6852C25.2453 59.6563 25.2535 59.6278 25.263 59.5997L24.9169 59.8438C25.3045 59.3923 25.4995 58.7626 25.7823 58.2111C26.098 57.6092 26.5324 57.0777 27.059 56.6486C27.5857 56.2195 28.1938 55.9017 28.8466 55.7144C30.0826 55.3557 31.3868 55.4533 32.6325 55.7584C33.8181 56.054 34.9539 56.5218 36.004 57.147C36.3764 57.3502 36.7072 57.6217 36.9792 57.9475C37.2078 58.2852 37.4022 58.6449 37.5594 59.0213C37.9275 59.7828 38.9318 60.4856 38.1322 60.5955C37.4667 60.6833 38.0737 61.1495 38.4223 61.4643C38.5007 61.5268 38.5683 61.6018 38.6222 61.6864C38.6805 61.806 38.7072 61.9384 38.7 62.0713C38.6927 62.2041 38.6517 62.3329 38.5808 62.4454C38.4296 62.5991 38.9757 62.6333 38.7904 62.7163Z" fill="black"/>
<path d="M38.7904 62.5283C38.6875 62.5644 38.5995 62.6341 38.5408 62.7261C38.482 62.8181 38.4557 62.9272 38.4662 63.036C38.2736 63.2068 38.0006 63.0042 37.8446 62.7919C37.6886 62.5796 37.5057 62.3038 37.2644 62.338C37.15 62.3745 37.039 62.421 36.9328 62.4771C36.555 62.5991 36.2356 62.1525 36.0235 61.762C35.653 61.0787 35.2922 60.3929 34.9143 59.712C34.183 60.1415 33.2981 59.69 32.5643 59.2434C31.8305 58.7968 30.9553 58.3453 30.2118 58.7748C29.1221 59.4045 29.0831 61.5033 27.9544 62.0232C27.5911 62.1891 27.1694 62.1525 26.8306 62.3819C26.4917 62.6113 26.3186 63.0482 26.1675 63.4679C26.1134 63.7062 25.9833 63.9204 25.7969 64.0781C25.6792 64.1412 25.5477 64.1739 25.4142 64.1732C25.0826 64.2276 24.7423 64.1791 24.4391 64.0341C24.2812 63.9332 24.1617 63.7821 24.0998 63.6051C24.0379 63.4281 24.0372 63.2354 24.0978 63.0579C24.1069 63.0384 24.1175 63.0197 24.1295 63.0018C24.2245 62.8358 24.3732 62.7187 24.4537 62.5332C24.5683 62.233 24.4049 61.8816 24.4537 61.557C24.5122 60.9981 25.1021 60.7053 25.2021 60.1562C25.2435 59.9414 25.2021 59.712 25.2387 59.4972C25.2453 59.4692 25.2535 59.4415 25.263 59.4142L24.9169 59.6583C25.3045 59.2044 25.4995 58.5747 25.7823 58.0256C26.098 57.4235 26.5323 56.8916 27.0589 56.4621C27.5856 56.0326 28.1937 55.7143 28.8466 55.5265C30.0826 55.1678 31.3868 55.2654 32.6325 55.5704C33.8186 55.8657 34.9546 56.3345 36.004 56.9615C36.3768 57.163 36.7078 57.4338 36.9791 57.7596C37.2078 58.0973 37.4022 58.457 37.5593 58.8334C37.9275 59.5973 38.9318 60.2977 38.1322 60.4075C37.4667 60.4978 38.0737 60.964 38.4223 61.2788C38.5011 61.34 38.5687 61.4143 38.6222 61.4984C38.6805 61.618 38.7072 61.7505 38.7 61.8833C38.6927 62.0162 38.6517 62.1449 38.5808 62.2574C38.4296 62.4161 38.9757 62.4429 38.7904 62.5283Z" fill="#865A61"/>
<path opacity="0.1" d="M38.4053 61.2593L38.3297 62.0574C38.3297 62.0574 30.3825 51.9732 24.1904 63.3606C24.1904 63.3606 24.1612 63.2215 24.11 62.9872C24.2051 62.8212 24.3538 62.7041 24.4342 62.5186C24.5488 62.2184 24.3855 61.867 24.4342 61.5424C24.4927 60.9835 25.0827 60.6907 25.1826 60.1416C25.2241 59.9268 25.1826 59.6974 25.2192 59.4826C25.2259 59.4546 25.234 59.4269 25.2436 59.3997L24.8974 59.6437C25.285 59.1898 25.48 58.5601 25.7628 58.011C26.0785 57.4089 26.5128 56.877 27.0395 56.4475C27.5661 56.018 28.1743 55.6997 28.8271 55.5119C30.0631 55.1532 31.3673 55.2508 32.6131 55.5559C33.7991 55.8511 34.9351 56.3199 35.9846 56.9469C36.3574 57.1484 36.6883 57.4192 36.9597 57.745C37.1883 58.0827 37.3827 58.4424 37.5399 58.8188C37.908 59.5827 38.9124 60.2831 38.1128 60.3929C37.4497 60.4783 38.0567 60.9518 38.4053 61.2593Z" fill="black"/>
<g opacity="0.1">
<path opacity="0.1" d="M38.6002 62.4161C38.5614 62.4606 38.5331 62.5134 38.5175 62.5705C38.5019 62.6275 38.4993 62.6874 38.51 62.7455C38.3175 62.9164 38.0469 62.7138 37.8908 62.5015C37.7348 62.2892 37.5495 62.0134 37.3106 62.0475C37.1961 62.0836 37.0851 62.1302 36.9791 62.1867C36.5988 62.3087 36.2794 61.8621 36.0674 61.4716L34.9606 59.4191C34.2292 59.8511 33.3443 59.3996 32.6105 58.953C31.8768 58.5064 30.9992 58.0549 30.2581 58.4844C29.1684 59.1141 29.1294 61.2129 28.0006 61.7303C27.635 61.8987 27.2132 61.8621 26.8768 62.0915C26.5404 62.3209 26.3624 62.7577 26.2137 63.1751C26.1587 63.4136 26.0288 63.6283 25.8432 63.7876C25.7256 63.8506 25.5938 63.8825 25.4605 63.8804C25.1291 63.937 24.7884 63.8892 24.4853 63.7437C24.302 63.621 24.1702 63.4351 24.1148 63.2214C24.0775 63.3915 24.0931 63.5688 24.1593 63.7298C24.2255 63.8907 24.3393 64.0276 24.4853 64.122C24.7885 64.2671 25.1288 64.3156 25.4605 64.2611C25.5936 64.2608 25.7247 64.2291 25.8432 64.1684C26.0283 64.0085 26.1581 63.7941 26.2137 63.5558C26.3624 63.136 26.5428 62.6992 26.8768 62.4698C27.2108 62.2404 27.635 62.277 28.0006 62.111C29.1294 61.5936 29.1684 59.4948 30.2581 58.8651C30.9894 58.4332 31.8743 58.8871 32.6105 59.3337C33.3468 59.7803 34.2195 60.2294 34.9606 59.7998L36.0674 61.8499C36.2794 62.2403 36.5988 62.687 36.9791 62.5649C37.0856 62.5102 37.1965 62.4645 37.3106 62.4283C37.5544 62.3965 37.7299 62.6723 37.8908 62.8798C38.0517 63.0872 38.3175 63.2995 38.51 63.1238C38.4995 63.0151 38.5258 62.906 38.5846 62.8139C38.6434 62.7219 38.7313 62.6523 38.8343 62.6162C38.983 62.5576 38.6685 62.521 38.6002 62.4161Z" fill="black"/>
<path opacity="0.1" d="M37.981 60.53C38.0388 60.507 38.0995 60.4922 38.1614 60.486C38.5124 60.4372 38.5149 60.2735 38.3759 60.0414C38.3094 60.0768 38.2364 60.0984 38.1614 60.105C37.7811 60.1563 37.8152 60.3321 37.981 60.53Z" fill="black"/>
<path opacity="0.1" d="M38.7078 62.1187C38.7346 61.9964 38.7346 61.8697 38.7078 61.7474C38.6907 61.8225 38.6583 61.8932 38.6125 61.955C38.549 62.0308 38.6223 62.0796 38.7078 62.1187Z" fill="black"/>
<path opacity="0.1" d="M24.4886 61.5717C24.4874 61.5936 24.4874 61.6156 24.4886 61.6376C24.4803 61.8086 24.4926 61.98 24.5252 62.1481C24.5433 61.9552 24.531 61.7607 24.4886 61.5717Z" fill="black"/>
<path opacity="0.1" d="M25.2587 59.2589C25.1678 59.4276 25.0606 59.5872 24.9387 59.7352L25.2465 59.5251C25.2432 59.4362 25.2473 59.3471 25.2587 59.2589Z" fill="black"/>
</g>
<path d="M24.2001 63.1702C24.2001 63.1702 23.0568 58.0452 23.42 57.2349C23.42 57.2349 22.4449 55.2093 22.4449 54.7261C22.3952 53.9208 22.1437 53.1411 21.7136 52.4588C21.1943 51.6388 20.6239 47.8219 23.7394 46.9116C26.8549 46.0012 29.2464 45.1739 29.6096 44.5467C29.9729 43.9195 35.3239 44.3026 36.7792 46.7188C38.2346 49.1349 39.1683 48.6468 39.1683 48.6468C39.1683 48.6468 41.4013 50.0476 41.4013 51.302C41.4013 52.5565 40.726 53.1837 41.4013 53.4717C42.0766 53.7596 41.5573 58.9726 38.5954 59.1166L38.337 61.867C38.337 61.867 30.3824 51.7828 24.2001 63.1702Z" fill="#FF8822"/>
<path opacity="0.1" d="M24.5415 47.9072C24.5415 47.9072 23.854 51.9365 25.1095 53.2763L24.5415 47.9072Z" fill="black"/>
<path opacity="0.1" d="M27.7594 46.9823C27.7594 46.9823 26.009 51.2971 26.4356 52.1269L27.7594 46.9823Z" fill="black"/>
<path opacity="0.1" d="M29.2757 45.6084C29.2757 45.6084 28.0909 51.2216 28.6589 51.6755L29.2757 45.6084Z" fill="black"/>
<path opacity="0.1" d="M31.3112 47.1238C31.3112 47.1238 29.8485 50.7285 30.436 51.2239L31.3112 47.1238Z" fill="black"/>
<path opacity="0.1" d="M34.0806 47.5509C34.0806 47.5509 32.3522 50.4795 32.7081 51.0116L34.0806 47.5509Z" fill="black"/>
<path opacity="0.1" d="M37.6325 50.4185C37.6325 50.4185 35.7846 50.9066 36.1698 51.5094L37.6325 50.4185Z" fill="black"/>
<path opacity="0.1" d="M39.3852 53.4764C39.3852 53.4764 37.7275 54.2818 38.0347 54.7089L39.3852 53.4764Z" fill="black"/>
<path opacity="0.1" d="M23.42 57.2348C23.42 57.2348 34.005 52.9322 38.5881 59.1165C38.5881 59.1165 33.025 54.3819 23.42 57.2348Z" fill="black"/>
<path d="M19.5975 92.6004L21.0724 91.1068L25.2411 95.2337L23.7662 96.7273L19.9315 92.9323L19.5975 92.6004Z" fill="#53526B"/>
<path d="M9.9292 83.0262C9.9292 83.0262 16.3821 83.5754 22.3913 90.3478L19.8877 92.8835L9.9292 83.0262Z" fill="#DFE6F5"/>
<path d="M29.283 95.1312C29.283 95.1312 23.0787 92.8664 22.4693 92.3246C21.8598 91.7828 18.2714 94.9335 22.6472 99.2166C22.6472 99.2166 28.0104 100.742 29.4292 99.2166C30.848 97.6913 29.283 95.1312 29.283 95.1312Z" fill="#FDC2CC"/>
<path d="M210.437 124.739H209.176V153.157H210.437V124.739Z" fill="#535461"/>
<path d="M218.362 153.069L218.281 154.35L218.172 156.156L218.125 156.908L218.013 158.716L217.965 159.47L217.852 161.276L216.582 181.823C216.527 182.707 216.137 183.537 215.492 184.144C214.847 184.751 213.996 185.088 213.111 185.089H206.504C205.62 185.088 204.768 184.75 204.124 184.144C203.479 183.537 203.09 182.707 203.035 181.823L201.763 161.276L201.651 159.47L201.604 158.716L201.49 156.908L201.446 156.156L201.334 154.35L201.253 153.069C201.238 152.823 201.273 152.577 201.357 152.346C201.44 152.114 201.57 151.902 201.738 151.723C201.906 151.544 202.11 151.401 202.335 151.303C202.561 151.206 202.804 151.155 203.05 151.156H216.568C216.813 151.156 217.056 151.206 217.282 151.304C217.507 151.402 217.71 151.545 217.878 151.724C218.046 151.903 218.176 152.115 218.259 152.346C218.342 152.578 218.377 152.824 218.362 153.069Z" fill="#65617D"/>
<path d="M218.281 154.35L218.169 156.156H201.443L201.331 154.35H218.281Z" fill="#9D9CB5"/>
<path d="M218.123 156.908L218.011 158.716H201.602L201.49 156.908H218.123Z" fill="#9D9CB5"/>
<path d="M217.962 159.47L217.852 161.276H201.76L201.648 159.47H217.962Z" fill="#9D9CB5"/>
<path d="M199.406 135.387C206.748 140.705 209.805 149.023 209.805 149.023C209.805 149.023 200.958 148.72 193.616 143.409C186.273 138.099 183.216 129.774 183.216 129.774C183.216 129.774 192.063 130.072 199.406 135.387Z" fill="#FF8822"/>
<path d="M183.216 129.774C183.216 129.774 192.399 134.877 195.344 139.102C198.289 143.326 209.805 149.03 209.805 149.03" stroke="#535461" stroke-width="2" stroke-miterlimit="10"/>
<path d="M204.145 124.676C208.14 127.57 209.805 132.098 209.805 132.098C209.805 132.098 204.99 131.932 200.992 129.04C196.994 126.148 195.332 121.618 195.332 121.618C195.332 121.618 200.149 121.782 204.145 124.676Z" fill="#FF8822"/>
<path d="M195.332 121.618C195.332 121.618 200.322 124.405 201.933 126.694C203.545 128.984 209.805 132.098 209.805 132.098" stroke="#535461" stroke-width="2" stroke-miterlimit="10"/>
<path d="M215.612 131.868C211.022 136.918 210.051 143.519 210.051 143.519C210.051 143.519 216.524 141.928 221.114 136.879C225.705 131.829 226.675 125.228 226.675 125.228C226.675 125.228 220.202 126.816 215.612 131.868Z" fill="#FF8822"/>
<path d="M226.675 125.228C226.675 125.228 220.695 130.404 219.176 133.972C217.657 137.54 210.051 143.519 210.051 143.519" stroke="#535461" stroke-width="2" stroke-miterlimit="10"/>
</g>

</svg>
