<svg width="18" height="20" viewBox="0 0 18 20" fill="none" xmlns="http://www.w3.org/2000/svg">
<path d="M6.79999 14.5C3.09999 14.5 0 11.5 0 7.70001C0 4.00001 2.99999 0.899994 6.79999 0.899994C10.5 0.899994 13.6 3.90001 13.6 7.70001C13.5 11.5 10.5 14.5 6.79999 14.5ZM6.79999 12.6C9.49999 12.6 11.6 10.4 11.6 7.79999C11.6 5.09999 9.39999 3 6.79999 3C4.09999 3 2 5.19999 2 7.79999C1.9 10.4 4.09999 12.6 6.79999 12.6ZM13.6 13.3L17.7 17.4C18.1 17.8 18.1 18.4 17.7 18.8C17.3 19.2 16.7 19.2 16.3 18.8L12.2 14.7C11.8 14.3 11.8 13.7 12.2 13.3C12.6 12.9 13.2 12.9 13.6 13.3Z" fill="#FF8822"/>
</svg>
